<?xml version="1.0" encoding="utf-8"?>
<svg xmlns="http://www.w3.org/2000/svg" viewBox="0 0 755.15 205.73">
    <defs>
        <style>
            .cls-1 {
                fill: #948357;
            }

            .cls-1, .cls-2, .cls-3 {
                fill-rule: evenodd;
            }

            .cls-2 {
                fill: #d2c6a4;
            }

            .cls-3 {
                fill: #baa874;
            }

            #Schrift {
                fill: currentColor;
            }
        </style>
    </defs>
    <title>UKT-Logo_RGB_c1_l2-Flach</title>
    <g id="Bildmarke">
        <path class="cls-1"
              d="M185.57,70.54H231.3a53.93,53.93,0,0,1,3.46,5.88H182.12a53.85,53.85,0,0,1,3.45-5.88Zm-52.26,35.27a54.46,54.46,0,0,0,.89,5.88H239.37a54.48,54.48,0,0,0,.9-5.88Zm24,11.76a54.41,54.41,0,0,0,2.35,5.87h75.8a54.41,54.41,0,0,0,2.35-5.87Zm83.22-17.64a54.25,54.25,0,0,0-.4-5.88H133.46a51.83,51.83,0,0,0-.39,5.88Zm-1.45-11.76a53,53,0,0,0-1.76-5.87h-101a55.19,55.19,0,0,0-1.76,5.87Z"/>
        <path class="cls-2"
              d="M107.84,52.91H62.11a53.79,53.79,0,0,0-3.46,5.87H111.3a53.79,53.79,0,0,0-3.46-5.87ZM54.35,70.54a55.36,55.36,0,0,1,1.76-5.88h101a55.36,55.36,0,0,1,1.76,5.88ZM52.91,82.3a51.83,51.83,0,0,1,.39-5.88H160a51.83,51.83,0,0,1,.39,5.88ZM160.1,88.18a53.91,53.91,0,0,1-.89,5.87H54a53.91,53.91,0,0,1-.89-5.87ZM96,105.81H58a53.76,53.76,0,0,1-2.35-5.88H99.5A54.55,54.55,0,0,0,96,105.81Z"/>
        <path class="cls-3"
              d="M144.91,99.93H99.18a53.93,53.93,0,0,0-3.46,5.88h52.65a53.93,53.93,0,0,0-3.46-5.88Zm52.26,35.27a54.09,54.09,0,0,1-.89,5.88H91.11a54.09,54.09,0,0,1-.89-5.88Zm-24,11.76a52.59,52.59,0,0,1-2.35,5.88H95A54.57,54.57,0,0,1,92.69,147ZM90,129.32a51.66,51.66,0,0,1,.39-5.87H197a51.66,51.66,0,0,1,.39,5.87Zm1.44-11.75a54.67,54.67,0,0,1,1.76-5.88h101a54.67,54.67,0,0,1,1.76,5.88Z"/>
    </g>
    <g id="Schrift">
        <path d="M299.39,70.53V93.24c0,5-2.83,9.75-11.81,9.75s-11.81-4.71-11.81-9.75V70.53h6.05V92.76c0,3.12,1.49,4.9,5.76,4.9s5.76-1.78,5.76-4.9V70.53Z"/>
        <path d="M320.07,102.51V86.18c0-1.24-.53-1.87-1.87-1.87a16.29,16.29,0,0,0-6.1,2v16.23h-5.85V79.13h4.46l.58,2a23.41,23.41,0,0,1,9.36-2.45c3.89,0,5.28,2.73,5.28,6.91v17Z"/>
        <path d="M332.53,75.82V69.05h5.86v6.77Zm0,26.69V79.13h5.86v23.38Z"/>
        <path d="M358.33,102.51H350.6l-7.48-23.38h6l5.32,17.76,5.38-17.76h6Z"/>
        <path d="M379.55,98.19a24.52,24.52,0,0,0,7.16-1.11l.91,4.42A25.07,25.07,0,0,1,379,103c-7.34,0-9.88-3.41-9.88-9V87.77c0-5,2.2-9.12,9.69-9.12S388,83,388,88.06v5H375v1.2C375,97.08,376,98.19,379.55,98.19ZM375,88.34h7.44V87.19c0-2.21-.67-3.74-3.55-3.74S375,85,375,87.19Z"/>
        <path d="M405.86,84a46.13,46.13,0,0,0-6.19,3.41v15.08h-5.86V79.13h4.95l.38,2.59a26.23,26.23,0,0,1,6.14-3.07Z"/>
        <path d="M418.3,103a27.51,27.51,0,0,1-8.07-1.35l.82-4.46a26.43,26.43,0,0,0,7,1c2.59,0,3-.58,3-2.36,0-1.44-.29-2.16-4.08-3.07-5.72-1.39-6.39-2.83-6.39-7.34,0-4.71,2.06-6.77,8.74-6.77a31.26,31.26,0,0,1,7,.81l-.58,4.66a40.76,40.76,0,0,0-6.43-.67c-2.55,0-3,.57-3,2,0,1.88.15,2,3.31,2.84,6.53,1.72,7.16,2.59,7.16,7.39C426.75,100.2,425.35,103,418.3,103Z"/>
        <path d="M432.62,75.82V69.05h5.86v6.77Zm0,26.69V79.13h5.86v23.38Z"/>
        <path d="M458.5,102.07a16.2,16.2,0,0,1-5.13.92c-4.28,0-6.44-2-6.44-6.2v-13h-3.5V79.13h3.5V73.32l5.86-.82v6.63h6l-.38,4.65h-5.62V96a1.85,1.85,0,0,0,2.11,2.06,11.17,11.17,0,0,0,2.93-.48Z"/>
        <path d="M481.31,102.51h-4.8l-.43-1.59a12.81,12.81,0,0,1-7,2.07c-4.27,0-6.1-2.93-6.1-7,0-4.76,2.07-6.58,6.82-6.58h5.61V87c0-2.59-.72-3.5-4.46-3.5a32.08,32.08,0,0,0-6.48.72l-.72-4.47a30.59,30.59,0,0,1,8-1.1c7.34,0,9.5,2.59,9.5,8.45Zm-15.5-31.64h4.84v5h-4.84Zm9.64,22.8h-4.32c-1.92,0-2.44.53-2.44,2.31,0,1.63.52,2.35,2.35,2.35a9.21,9.21,0,0,0,4.41-1.2Zm-.57-22.8h4.85v5h-4.85Z"/>
        <path d="M501,102.07a16.21,16.21,0,0,1-5.14.92c-4.27,0-6.43-2-6.43-6.2v-13H486V79.13h3.5V73.32l5.86-.82v6.63h6l-.39,4.65h-5.61V96a1.84,1.84,0,0,0,2.11,2.06,11.24,11.24,0,0,0,2.93-.48Z"/>
        <path d="M514,103a27.44,27.44,0,0,1-8.06-1.35l.81-4.46a26.43,26.43,0,0,0,7,1c2.59,0,3-.58,3-2.36,0-1.44-.29-2.16-4.08-3.07-5.71-1.39-6.39-2.83-6.39-7.34,0-4.71,2.07-6.77,8.74-6.77a31.26,31.26,0,0,1,7,.81l-.58,4.66a40.64,40.64,0,0,0-6.43-.67c-2.54,0-3,.57-3,2,0,1.88.15,2,3.32,2.84,6.52,1.72,7.15,2.59,7.15,7.39C522.4,100.2,521,103,514,103Z"/>
        <path d="M528.23,102.51V69.57l5.86-.81v33.75Zm19.88-23.38L541.24,90.7l7.16,11.81H542L534.91,90.7l6.67-11.57Z"/>
        <path d="M553.46,102.51V69.57l5.86-.81v33.75Z"/>
        <path d="M566,75.82V69.05h5.86v6.77Zm0,26.69V79.13h5.86v23.38Z"/>
        <path d="M592.36,102.51V86.18c0-1.24-.53-1.87-1.87-1.87a16.29,16.29,0,0,0-6.1,2v16.23h-5.85V79.13H583l.58,2a23.41,23.41,0,0,1,9.36-2.45c3.89,0,5.28,2.73,5.28,6.91v17Z"/>
        <path d="M604.82,75.82V69.05h5.86v6.77Zm0,26.69V79.13h5.86v23.38Z"/>
        <path d="M617.35,102.51V69.57l5.86-.81v33.75Zm19.88-23.38L630.36,90.7l7.16,11.81h-6.44L624,90.7l6.67-11.57Z"/>
        <path d="M648.18,79.13V95.45c0,1.25.52,1.87,1.87,1.87a16,16,0,0,0,6.09-2V79.13H662v23.38h-4.46l-.58-2A23.41,23.41,0,0,1,647.6,103c-3.89,0-5.28-2.74-5.28-6.92V79.13Z"/>
        <path d="M682.57,102.51V86.18c0-1.24-.53-1.87-1.87-1.87a16.24,16.24,0,0,0-6.1,2v16.23h-5.86V79.13h4.47l.57,2a23.45,23.45,0,0,1,9.36-2.45,4.45,4.45,0,0,1,4.42,2.49A22.93,22.93,0,0,1,697,78.65c3.89,0,5.28,2.73,5.28,6.91v17h-5.86V86.18c0-1.24-.52-1.87-1.87-1.87a15.48,15.48,0,0,0-6.1,2v16.23Z"/>
        <path d="M282.54,126.19h-8.93v-5.33h23.91v5.33h-8.93v26.64h-6Z"/>
        <path d="M307.62,129.45v16.32c0,1.25.53,1.88,1.87,1.88a16.24,16.24,0,0,0,6.1-2V129.45h5.86v23.38H317l-.57-2a23.46,23.46,0,0,1-9.37,2.45c-3.88,0-5.28-2.74-5.28-6.91v-17Zm-2.69-8.25h4.85v5h-4.85Zm9.08,0h4.84v5H314Z"/>
        <path d="M348,143.85c0,5.67-1.72,9.46-10.75,9.46a52.57,52.57,0,0,1-9.07-.82V119.9l5.85-.82v11.28A19.21,19.21,0,0,1,341,129c5,0,7.05,3.07,7.05,8Zm-14,4.28a27.43,27.43,0,0,0,3.51.19c3.84,0,4.61-1.54,4.61-4.27v-7.2c0-1.88-.82-2.88-3-2.88a13.64,13.64,0,0,0-5.14,1.34Z"/>
        <path d="M354.07,126.14v-6.77h5.86v6.77Zm0,26.69V129.45h5.86v23.38Z"/>
        <path d="M380.43,152.83V136.51c0-1.25-.53-1.87-1.87-1.87a16.11,16.11,0,0,0-6.1,2v16.22h-5.85V129.45h4.46l.58,2A23.41,23.41,0,0,1,381,129c3.89,0,5.28,2.74,5.28,6.92v16.94Z"/>
        <path d="M399.94,146.54a2.53,2.53,0,0,0-1.39,1.87c0,.63.39.92,1.3,1,2.59.29,4,.43,6.77.72,3.79.43,5,2.31,5,5.67,0,5-1.83,7-10.56,7a34.32,34.32,0,0,1-9-1.2l.72-4.37a32.71,32.71,0,0,0,7.88,1c4.65,0,5.56-.34,5.56-1.88s-.43-1.68-2.2-1.87c-2.69-.29-3.8-.43-6.77-.77-3.32-.38-4.61-1.48-4.61-4.46a4.92,4.92,0,0,1,2.45-4c-2.16-1.3-3.17-3.46-3.17-6.29v-2.21c.09-4.85,2.64-7.78,9.41-7.78a15.76,15.76,0,0,1,4,.48h7.2v2.93c-.81.24-1.77.48-2.59.72a8,8,0,0,1,.82,3.65V139c0,4.75-2.88,7.63-9.41,7.63A11.83,11.83,0,0,1,399.94,146.54Zm1.35-12.86c-2.88,0-3.89,1-3.89,3.26v1.78c0,2.3,1.15,3.17,3.89,3.17s3.93-.92,3.93-3.17v-1.78C405.22,134.73,404.22,133.68,401.29,133.68Z"/>
        <path d="M427,148.51a24.71,24.71,0,0,0,7.15-1.1l.92,4.41a25.07,25.07,0,0,1-8.6,1.49c-7.34,0-9.89-3.41-9.89-9v-6.2c0-4.94,2.21-9.12,9.7-9.12s9.17,4.37,9.17,9.41v5h-13v1.2C422.44,147.41,423.45,148.51,427,148.51Zm-4.56-9.84h7.44v-1.15c0-2.21-.67-3.75-3.55-3.75s-3.89,1.54-3.89,3.75Z"/>
        <path d="M455.09,152.83V136.51c0-1.25-.53-1.87-1.88-1.87a16,16,0,0,0-6.09,2v16.22h-5.86V129.45h4.46l.58,2a23.45,23.45,0,0,1,9.36-2.45c3.89,0,5.28,2.74,5.28,6.92v16.94Z"/>
    </g>
</svg>